<?xml version="1.0" standalone="no"?>
<!DOCTYPE svg PUBLIC "-//W3C//DTD SVG 20010904//EN"
 "http://www.w3.org/TR/2001/REC-SVG-20010904/DTD/svg10.dtd">
<svg version="1.0" xmlns="http://www.w3.org/2000/svg"
 width="500.000000pt" height="500.000000pt" viewBox="0 0 500.000000 500.000000"
 preserveAspectRatio="xMidYMid meet">

<g transform="translate(0.000000,500.000000) scale(0.100000,-0.100000)"
fill="#000000" stroke="none">
<path d="M2630 4518 l0 -215 -174 5 c-213 6 -386 -9 -543 -48 -306 -75 -525
-175 -843 -385 -147 -97 -252 -193 -403 -365 -133 -152 -189 -232 -266 -387
-100 -199 -131 -287 -172 -491 -75 -369 5 -907 187 -1262 80 -157 274 -408
396 -512 153 -131 370 -273 525 -344 430 -197 485 -217 693 -253 270 -47 486
-47 765 0 329 56 522 126 725 264 199 135 305 236 403 382 127 188 167 312
167 512 0 242 -42 385 -166 572 -98 148 -312 305 -500 368 -163 55 -484 78
-647 47 -189 -36 -399 -157 -551 -316 -87 -91 -148 -190 -184 -297 -22 -67
-26 -96 -26 -203 0 -139 14 -212 64 -318 64 -138 227 -263 420 -324 104 -32
325 -32 444 1 113 30 234 92 300 152 93 85 158 242 168 408 3 51 1 55 -22 62
-33 9 -272 11 -286 1 -6 -4 -16 -36 -23 -72 -25 -130 -67 -192 -164 -241 -117
-60 -316 -22 -414 79 -96 99 -135 242 -98 368 55 191 172 305 390 380 77 27
86 28 265 26 102 -1 210 -6 240 -12 101 -19 176 -64 286 -174 148 -149 199
-259 211 -452 5 -86 3 -111 -15 -170 -23 -73 -121 -238 -198 -334 -60 -74
-181 -171 -273 -219 -89 -46 -265 -103 -406 -132 -294 -60 -686 13 -895 166
-121 89 -312 323 -375 460 -53 115 -60 159 -60 385 0 240 4 260 97 445 85 169
124 222 241 325 110 98 187 142 350 199 233 82 391 93 1112 81 303 -5 727 -10
944 -10 l393 0 -5 318 c-3 244 -8 339 -22 412 -33 180 -103 343 -228 529 -199
300 -363 455 -617 585 -183 93 -296 127 -555 165 -160 24 -308 37 -512 47
l-143 7 0 -215z m1235 -439 c123 -42 232 -138 288 -256 30 -63 32 -76 32 -173
0 -100 -2 -109 -34 -175 -70 -142 -209 -241 -373 -267 -218 -33 -441 80 -531
269 -30 63 -32 75 -32 174 0 102 1 108 38 182 110 223 369 327 612 246z"/>
<path d="M3516 3935 c-91 -32 -134 -127 -85 -189 59 -75 184 -73 261 4 31 31
38 45 38 78 0 93 -105 146 -214 107z"/>
</g>
</svg>
